<?xml version="1.0" standalone="no"?>
<!DOCTYPE svg PUBLIC "-//W3C//DTD SVG 20010904//EN"
 "http://www.w3.org/TR/2001/REC-SVG-20010904/DTD/svg10.dtd">
<svg version="1.0" xmlns="http://www.w3.org/2000/svg"
 width="128.000000pt" height="128.000000pt" viewBox="0 0 128.000000 128.000000"
 preserveAspectRatio="xMidYMid meet">
<metadata>
Created by potrace 1.11, written by Peter Selinger 2001-2013
</metadata>
<g transform="translate(0.000000,128.000000) scale(0.100000,-0.100000)"
fill="#000000" stroke="none">
<path d="M485 1259 c-235 -62 -421 -253 -470 -485 -14 -67 -14 -197 0 -273 12
-64 64 -179 109 -240 46 -63 155 -153 230 -190 105 -53 184 -69 311 -66 258 7
477 165 575 415 28 71 35 123 34 240 -1 97 -13 153 -54 248 l-22 51 36 42 c20
24 34 44 32 46 -4 5 -47 -17 -78 -40 -15 -10 -20 -8 -34 13 -9 14 -46 53 -81
87 -68 65 -186 130 -278 153 -83 21 -230 20 -310 -1z"/>
</g>
</svg>
